<svg width="200" height="200" viewBox="0 0 200 200" fill="none" xmlns="http://www.w3.org/2000/svg">
<mask id="mask0_1678_825" style="mask-type:alpha" maskUnits="userSpaceOnUse" x="0" y="0" width="200" height="200">
<circle cx="100" cy="100" r="100" fill="#D9D9D9"/>
</mask>
<g mask="url(#mask0_1678_825)">
<path d="M85.3507 150.352C56.3273 148.438 33.3976 140.195 30.1163 130.508C29.5695 128.867 29.5695 124.492 30.0773 122.578C30.5851 120.742 33.8273 117.188 36.8351 115.156C43.1242 110.898 55.2726 106.797 67.421 104.844C71.6398 104.18 71.796 104.18 77.1476 105C86.5617 106.484 90.1554 106.758 99.6085 106.758C109.062 106.797 113.085 106.484 122.382 105L127.734 104.141L132.734 105.039C151.991 108.359 165.976 114.922 168.944 122.031C169.726 123.867 169.726 129.258 168.944 131.094C165.429 139.531 147.03 146.875 122.655 149.57C112.304 150.742 96.171 151.055 85.3507 150.352Z" fill="black"/>
<path d="M88.6702 104.414C65.2718 102.812 47.8108 96.8747 44.139 89.2965C43.1233 87.1481 43.0843 83.2418 44.0999 81.0543C46.8733 74.8825 60.0765 69.3356 77.3811 66.9528C81.5608 66.4059 82.7718 66.3668 85.1936 66.7575C90.5452 67.6559 104.491 67.7731 111.483 66.9918C117.694 66.3278 117.811 66.3278 123.28 67.1481C139.061 69.57 150.701 74.2575 154.53 79.7262C155.506 81.1715 155.662 81.7965 155.78 84.57C155.897 87.1872 155.78 88.0465 155.155 89.3356C151.326 96.7965 134.569 102.617 112.108 104.297C107.342 104.648 93.0061 104.726 88.6702 104.414Z" fill="black"/>
<path d="M85.9761 65.7813C71.0542 64.1798 60.0386 59.922 57.7729 54.922C56.9136 53.0079 56.8354 50.0782 57.5776 48.3204C59.6479 43.3595 70.3901 39.0626 85.1948 37.3048C92.2261 36.4454 106.992 36.4454 113.984 37.2657C128.593 39.0235 138.32 42.6563 141.289 47.5782C142.46 49.4923 142.539 53.5157 141.445 55.3126C138.398 60.3126 127.695 64.2579 112.89 65.8204C106.093 66.5235 92.6948 66.5235 85.9761 65.7813Z" fill="black"/>
<path d="M0 100V0H100H200V100V200H100H0V100ZM111.914 149.219C141.562 147.266 163.75 139.609 167.773 129.922C168.516 128.164 168.516 124.961 167.773 123.203C164.844 116.172 151.172 109.688 132.07 106.25C127.93 105.508 127.383 105.508 124.609 106.016C117.539 107.383 110 107.969 99.8047 107.969C89.5312 107.969 84.9609 107.617 76.2891 106.25L71.5234 105.469L66.3281 106.445C50.2344 109.453 39.1797 114.062 33.6719 120.117C27.6562 126.68 31.1719 133.906 43.125 139.648C58.7109 147.109 86.0547 150.898 111.914 149.219ZM110.938 103.125C133.398 101.445 150.156 95.625 153.984 88.1641C155.078 85.9766 154.844 83.0469 153.32 80.8594C149.57 75.4688 137.852 70.7031 122.5 68.3594C117.539 67.6172 117.07 67.6172 112.461 68.2031C104.805 69.1406 86.9922 68.8672 83.1641 67.7344C82.3438 67.5 72.5781 68.9453 68.3594 69.9219C56.3672 72.7344 47.3828 77.5 45.2734 82.2266C40.7422 92.1484 59.8047 101.172 89.8438 103.242C94.1406 103.555 106.133 103.477 110.938 103.125ZM111.719 64.6484C129.258 62.8125 141.016 57.5391 141.016 51.5625C141.016 43.7891 123.203 37.8906 99.8047 37.8516C81.6797 37.8516 67.1484 41.1719 60.8984 46.7969C52.7734 54.1016 64.6094 62.1484 87.1484 64.6094C93.7891 65.3516 105.039 65.3516 111.719 64.6484Z" fill="white"/>
</g>
</svg>
