<svg width="200" height="200" viewBox="0 0 200 200" fill="none" xmlns="http://www.w3.org/2000/svg">
<ellipse cx="100" cy="100" rx="82" ry="90" fill="black"/>
<path d="M86.9669 199.165C86.5675 198.915 84.4707 198.565 82.3739 198.366C80.2272 198.166 78.4799 197.817 78.4799 197.567C78.4799 197.317 77.5813 197.118 76.5329 197.118C75.4346 197.118 74.4361 196.918 74.2863 196.668C74.0866 196.419 73.0383 196.069 71.89 195.87C70.7418 195.67 69.4438 195.32 68.9945 195.121C68.5951 194.871 67.1473 194.322 65.7494 193.873C61.5059 192.425 53.4683 188.681 49.2747 186.135C47.9267 185.286 46.3791 184.487 45.9298 184.337C45.4306 184.138 45.0312 183.838 45.0312 183.638C45.0312 183.389 44.6318 183.089 44.1326 182.939C43.6333 182.74 42.7846 182.24 42.2355 181.741C41.7362 181.292 40.6379 180.493 39.8891 179.994C34.9966 176.849 21.6171 163.519 19.6201 159.775C19.3206 159.226 18.7714 158.477 18.422 158.078C16.5748 156.18 9.58553 144.049 9.58553 142.751C9.58553 142.452 9.38583 142.202 9.08629 142.202C8.83668 142.202 8.58706 141.902 8.58706 141.503C8.58706 141.104 8.28752 140.155 7.88813 139.356C6.04096 135.612 4.49333 131.169 2.54632 123.481C2.24678 122.382 1.79747 120.685 1.54785 119.736C-0.548935 112.098 -0.499012 84.7899 1.59777 80.0472C1.84739 79.498 2.14693 78.3997 2.24678 77.551C2.54632 75.7537 3.54479 71.9596 4.04402 70.5617C5.19226 67.6661 5.74142 65.9188 5.94112 64.6707C6.09089 63.9219 6.39043 63.3228 6.64004 63.3228C6.88966 63.3228 7.08935 62.9733 7.08935 62.574C7.08935 61.4257 13.18 49.1445 14.1286 48.3458C14.3283 48.196 14.5779 47.5969 14.7776 46.9978C14.9773 46.3488 15.3766 45.8496 15.6263 45.8496C15.8759 45.8496 16.0756 45.5001 16.0756 45.1007C16.0756 44.7014 16.2753 44.3519 16.475 44.3519C16.7246 44.3519 17.124 43.8527 17.4235 43.2536C17.7231 42.6046 18.7215 41.2067 19.6201 40.0585C20.5687 38.9602 22.1163 37.0631 23.0649 35.8649C25.3114 33.0193 32.7001 25.6306 35.5457 23.384C36.7439 22.4355 38.641 20.8879 39.7393 19.9393C40.8875 19.0407 42.2854 18.0422 42.9344 17.7427C43.5335 17.4431 44.0327 17.0438 44.0327 16.7941C44.0327 16.5944 44.3822 16.3947 44.7816 16.3947C45.181 16.3947 45.5304 16.1951 45.5304 15.8955C45.5304 15.6459 45.83 15.3963 46.2293 15.3963C46.6287 15.3963 47.2777 15.0967 47.6272 14.7473C47.9767 14.4477 49.1748 13.6989 50.2731 13.1497C51.3715 12.6006 52.8692 11.7519 53.5681 11.3026C54.267 10.8532 55.9644 10.0045 57.3623 9.45539C58.7601 8.90623 60.8569 8.05753 62.0551 7.50837C63.2533 6.95921 65.4 6.16044 66.7479 5.6612C68.1458 5.21189 69.5935 4.71266 69.9929 4.51297C70.9415 4.1635 75.784 2.96534 77.7311 2.61587C78.5798 2.4661 79.6781 2.16656 80.2272 1.91695C83.1727 0.569012 105.988 -0.629151 109.432 0.369318C110.381 0.618935 113.077 1.06825 115.423 1.36779C117.77 1.6174 120.565 2.06672 121.664 2.36626C122.762 2.61587 124.809 3.11511 126.157 3.41465C127.555 3.71419 129.102 4.1635 129.651 4.41312C132.098 5.41159 135.243 6.41006 136.042 6.41006C136.491 6.41006 136.89 6.60975 136.89 6.80944C136.89 7.05906 138.138 7.65814 139.636 8.15738C141.134 8.70654 142.382 9.30562 142.382 9.50531C142.382 9.70501 142.731 9.9047 143.181 9.9047C143.88 9.9047 146.725 11.2526 147.374 11.9016C147.524 12.0514 149.122 12.95 151.019 13.8986C152.866 14.8471 154.364 15.7957 154.364 15.9954C154.364 16.1951 154.663 16.3947 155.062 16.3947C155.462 16.3947 155.861 16.5944 155.961 16.7941C156.061 16.9938 156.96 17.6928 158.008 18.3418C159.006 18.9408 159.855 19.6897 159.855 19.9393C159.855 20.1889 160.155 20.3886 160.554 20.3886C160.953 20.3886 161.353 20.5384 161.453 20.788C161.553 20.9877 162.751 22.0361 164.099 23.1344C167.344 25.7304 175.631 34.0177 177.828 36.8634C178.776 38.1115 179.725 39.2098 179.924 39.2597C180.174 39.3595 180.324 39.6591 180.324 39.9586C180.324 40.2082 180.623 40.7574 180.973 41.1069C182.421 42.7543 182.82 43.3534 182.82 43.8527C182.82 44.1023 182.97 44.3519 183.219 44.3519C183.419 44.3519 184.018 45.2006 184.567 46.249C185.116 47.2474 185.865 48.3957 186.165 48.7452C186.514 49.0946 186.814 49.7436 186.814 50.143C186.814 50.5424 186.964 50.8419 187.213 50.8419C187.413 50.8419 187.812 51.3412 188.112 51.9902C188.411 52.5893 189.36 54.4864 190.259 56.1837C191.107 57.8811 191.806 59.6285 191.806 60.0279C191.806 60.4772 192.006 60.8266 192.206 60.8266C192.405 60.8266 193.004 62.1246 193.553 63.7222C194.053 65.2698 194.652 66.9173 194.851 67.3167C195.5 68.6646 196.799 73.2076 196.799 74.2061C196.799 74.7054 196.948 75.3044 197.198 75.5041C197.647 76.0034 198.646 80.9458 199.395 86.5372C200.193 92.2784 200.193 107.805 199.444 112.997C198.346 120.535 197.747 123.481 197.298 124.329C196.998 124.829 196.799 125.677 196.799 126.226C196.799 126.776 196.599 127.624 196.349 128.123C196.15 128.573 195.55 130.22 195.101 131.718C194.003 135.263 191.357 141.802 190.758 142.451C190.508 142.701 190.308 143.3 190.308 143.799C190.308 144.299 190.109 144.698 189.809 144.698C189.56 144.698 189.31 144.948 189.31 145.247C189.31 145.597 188.411 147.244 187.313 148.991C186.215 150.739 185.316 152.286 185.316 152.436C185.316 152.836 181.322 158.727 180.474 159.575C180.124 159.975 179.575 160.723 179.275 161.273C178.227 163.27 169.141 172.605 164.348 176.649C160.704 179.744 155.961 183.139 155.362 183.139C155.112 183.139 154.863 183.339 154.863 183.638C154.863 183.888 154.314 184.237 153.615 184.437C152.916 184.587 152.367 184.936 152.367 185.186C152.367 185.436 152.017 185.635 151.618 185.635C151.218 185.635 150.869 185.835 150.869 186.135C150.869 186.384 150.32 186.734 149.621 186.933C148.922 187.083 148.373 187.433 148.373 187.682C148.373 187.932 148.073 188.131 147.674 188.131C146.825 188.131 143.68 189.729 143.48 190.278C143.38 190.478 142.981 190.628 142.582 190.628C142.182 190.628 141.483 190.827 140.984 191.127C139.586 191.926 135.792 193.473 133.645 194.122C132.547 194.472 131.299 194.921 130.9 195.121C130.45 195.32 129.152 195.67 128.004 195.87C126.856 196.069 125.807 196.419 125.608 196.668C125.458 196.918 124.709 197.118 123.86 197.118C123.062 197.118 122.013 197.317 121.514 197.617C119.767 198.615 112.278 199.264 100.197 199.414C93.3571 199.514 87.3663 199.414 86.9669 199.165ZM107.685 165.167C112.628 164.717 117.82 163.819 119.168 163.22C119.717 162.97 121.514 162.371 123.161 161.922C124.809 161.422 126.357 160.873 126.606 160.624C126.906 160.374 127.605 160.174 128.204 160.174C128.803 160.174 129.402 160.025 129.502 159.825C129.701 159.276 132.847 157.678 133.645 157.678C133.995 157.678 134.394 157.528 134.494 157.329C134.594 157.079 135.742 156.38 137.04 155.681C138.388 154.982 139.886 154.034 140.385 153.584C140.934 153.085 141.483 152.686 141.633 152.686C142.432 152.686 147.774 148.243 151.668 144.299C156.61 139.406 158.957 136.66 160.454 134.164C161.003 133.216 161.602 132.367 161.802 132.217C162.701 131.468 168.841 119.187 168.841 118.089C168.841 117.739 169.041 117.24 169.291 116.991C169.69 116.491 170.589 113.596 171.338 110.001C173.085 101.964 174.083 93.5764 173.634 90.1816C173.434 88.7338 173.085 85.7884 172.835 83.6417C172.586 81.4949 172.136 78.9988 171.887 78.1501C170.139 72.309 169.59 70.7614 168.442 68.3151C165.546 62.2744 160.454 55.6845 155.861 52.09C152.067 49.0946 148.922 46.9479 147.524 46.2989C146.625 45.9494 145.877 45.4502 145.877 45.2505C145.877 45.1007 144.429 44.4018 142.632 43.7528C140.834 43.1537 139.387 42.4548 139.387 42.2551C139.387 42.0055 138.837 41.8557 138.138 41.8557C137.44 41.8557 136.89 41.656 136.89 41.4064C136.89 41.1568 135.892 40.8073 134.644 40.6576C133.446 40.4579 132.297 40.1084 132.148 39.8089C131.948 39.5592 131.199 39.3595 130.35 39.3595C129.552 39.3595 128.503 39.1599 128.004 38.8603C127.205 38.411 125.408 38.0615 117.171 36.7635C112.628 36.0147 87.2664 36.0147 82.7234 36.7635C74.486 38.0615 72.6888 38.411 71.89 38.8603C71.3908 39.1599 70.6419 39.3595 70.2425 39.3595C69.3439 39.3595 65.0006 40.6576 63.0036 41.4563C62.3047 41.7559 61.3062 42.1553 60.7571 42.355C59.1096 43.004 50.7724 47.0478 50.5228 47.2974C50.373 47.4971 49.0251 48.4456 47.5274 49.4441C42.1356 53.0885 35.8453 60.0279 33.2992 65.0701C32.75 66.1684 32.2009 67.1669 32.0511 67.3167C31.9013 67.4665 31.3522 68.5648 30.8529 69.8129C30.3537 71.0609 29.7546 72.5087 29.505 73.0579C26.3099 80.4466 25.8606 97.9697 28.5564 110.001C28.856 111.399 29.3053 112.897 29.5549 113.346C29.8545 113.845 30.0541 114.544 30.0541 114.994C30.0541 115.693 30.4036 116.641 32.75 121.883C33.4489 123.481 34.048 124.978 34.048 125.178C34.048 125.428 34.1978 125.727 34.4474 125.827C34.6471 125.927 35.2462 126.875 35.7953 127.974C36.694 129.821 40.3883 135.662 41.0373 136.211C41.1871 136.361 41.886 137.259 42.6349 138.258C44.2324 140.455 53.5182 149.69 54.0673 149.69C54.267 149.69 54.7663 149.99 55.1157 150.389C56.7632 151.987 62.6542 155.631 67.2471 157.828C69.9929 159.176 72.5889 160.424 72.9883 160.624C73.3877 160.823 75.0851 161.422 76.7326 161.872C78.3801 162.371 80.1773 162.97 80.7265 163.22C84.7703 165.017 99.0983 166.065 107.685 165.167Z" fill="white"/>
<path d="M93.9147 131.29C92.6167 130.541 90.6198 129.043 89.4216 127.945C86.8755 125.499 82.632 120.407 81.9331 118.859C81.6335 118.21 81.2341 117.711 80.9845 117.711C80.7848 117.711 80.5851 117.411 80.5851 117.012C80.5851 116.613 80.4354 116.213 80.2357 116.113C79.6865 115.914 75.5928 109.723 75.5928 109.174C75.5928 108.924 75.3931 108.725 75.0936 108.725C74.8439 108.725 74.5943 108.425 74.5943 108.026C74.5943 107.626 74.2948 106.977 73.9952 106.628C73.6458 106.278 72.8969 105.18 72.3977 104.232C71.8485 103.283 71.2994 102.384 71.1496 102.235C70.8501 101.985 69.7517 99.988 68.254 97.1424C67.4553 95.5448 67.006 95.445 66.1073 96.4934C65.7579 96.8928 65.1588 97.2422 64.8093 97.2422C64.4099 97.2422 64.1104 97.392 64.1104 97.6416C64.1104 98.3905 59.1181 99.7384 56.1726 99.7384C52.8776 99.7384 46.787 97.6916 46.2877 96.4435C46.138 96.0441 45.8384 95.7445 45.5389 95.7445C44.8899 95.7445 43.6418 94.4465 43.6418 93.7975C43.6418 93.498 43.4421 93.2484 43.2424 93.2484C43.0427 93.2484 42.194 92.0003 41.3952 90.4027C40.0473 87.8566 39.8975 87.1577 39.9474 83.1638C39.9974 80.5179 40.247 78.471 40.5465 78.1715C40.896 77.822 41.1456 77.173 41.1456 76.6738C41.1456 76.1745 41.3952 75.7752 41.6448 75.7752C41.9444 75.7752 42.1441 75.4756 42.1441 75.1261C42.1441 74.577 45.1894 71.1822 46.737 70.034C48.2847 68.8857 50.5811 67.7874 51.4298 67.7874C51.9291 67.7874 53.0274 67.5378 53.926 67.1883C55.2739 66.739 56.2225 66.7889 59.168 67.4879C61.1649 67.9871 63.4614 68.686 64.2602 69.1353C66.2571 70.1338 70.0513 74.1277 70.4008 75.5755C70.5505 76.2245 70.9 76.7736 71.1496 76.7736C71.3992 76.7736 71.5989 77.1231 71.5989 77.5724C71.5989 78.4211 75.6427 86.4089 76.1919 86.6585C76.4415 86.7583 76.5913 87.1078 76.5913 87.4073C76.5913 87.7568 77.4899 89.4043 78.5882 91.1516C79.6865 92.849 80.5851 94.5963 80.5851 94.9957C80.5851 95.3951 80.7848 95.7445 81.0844 95.7445C81.334 95.7445 81.6835 96.2937 81.8831 96.9926C82.0329 97.6916 82.3824 98.2407 82.5821 98.2407C82.7818 98.2407 83.0813 98.6401 83.281 99.1393C83.5306 99.988 84.579 101.735 85.0782 102.235C85.5775 102.734 86.6259 104.481 86.8755 105.38C87.0752 105.829 87.3248 106.228 87.5245 106.228C87.7242 106.228 88.2733 107.027 88.7726 107.976C89.3217 108.924 89.9208 109.723 90.1704 109.723C90.3701 109.723 90.5698 109.973 90.5698 110.272C90.5698 110.722 93.066 114.316 94.0645 115.215C94.2142 115.364 95.1628 116.513 96.2112 117.861C97.2596 119.159 98.4078 120.207 98.7573 120.207C99.8556 120.207 107.544 111.52 107.544 110.272C107.544 109.973 107.744 109.723 107.943 109.723C108.193 109.723 108.792 108.924 109.341 107.976C109.84 107.027 110.439 106.228 110.639 106.228C110.889 106.228 111.038 105.929 111.038 105.53C111.038 105.13 111.188 104.731 111.438 104.631C111.638 104.581 112.586 103.233 113.535 101.735C114.483 100.238 115.382 98.8897 115.532 98.7399C116.031 98.2906 117.079 96.4934 117.329 95.6447C117.529 95.1455 117.828 94.7461 118.028 94.7461C118.227 94.7461 118.577 94.1969 118.727 93.498C118.926 92.7991 119.276 92.2499 119.525 92.2499C119.825 92.2499 120.025 91.9504 120.025 91.551C120.025 91.1516 120.174 90.7522 120.424 90.6523C120.624 90.6024 121.522 89.0548 122.471 87.2576C123.419 85.4603 124.717 83.2138 125.366 82.2652C126.015 81.3167 126.515 80.2683 126.515 79.9188C126.515 79.5693 126.764 79.2698 127.014 79.2698C127.313 79.2698 127.513 78.9203 127.513 78.471C127.513 77.6722 128.811 75.0263 129.76 73.9779C131.956 71.4817 132.456 70.9326 133.304 70.2836C134.552 69.335 137.648 68.037 140.593 67.2882C143.139 66.6392 146.684 67.1384 149.979 68.686C153.224 70.2336 156.269 73.1292 157.667 76.0248C158.166 77.1231 158.815 78.4211 159.015 78.8704C159.614 80.0186 159.564 87.1078 159.015 87.4572C158.765 87.607 158.416 88.5556 158.266 89.5041C158.066 90.4527 157.717 91.2514 157.467 91.2514C157.168 91.2514 156.968 91.551 156.968 91.9504C156.968 92.7991 152.525 97.2422 151.676 97.2422C151.277 97.2422 150.977 97.392 150.977 97.6416C150.977 98.4404 145.985 99.7384 142.94 99.7384C140.194 99.7384 135.751 98.6401 135.002 97.7415C134.552 97.1923 132.056 95.7445 131.607 95.7445C131.357 95.7445 129.86 97.9412 128.262 100.637C124.767 106.528 120.923 112.419 120.424 112.619C120.174 112.719 120.025 113.068 120.025 113.368C120.025 113.717 119.476 114.566 118.777 115.315C118.078 116.063 117.529 116.912 117.529 117.212C117.529 117.461 117.329 117.711 117.129 117.711C116.879 117.711 116.48 118.16 116.23 118.709C115.981 119.258 114.883 120.756 113.784 122.054C105.447 131.989 99.8556 134.585 93.9147 131.29Z" fill="white"/>
</svg>
