<svg width="200" height="199" viewBox="0 0 200 199" fill="none" xmlns="http://www.w3.org/2000/svg">
<g clip-path="url(#clip0_158_707)">
<path d="M100 189.131C100 194.843 104.645 199.529 110.328 198.946C160.704 193.779 200 151.226 200 99.4977C200 47.769 160.704 5.2173 110.328 0.0495931C104.645 -0.536471 100 4.15204 100 9.86443V37.4439C100 43.1563 104.676 47.6794 110.279 48.8066C133.921 53.5744 151.724 74.4555 151.724 99.4977C151.724 124.54 133.921 145.421 110.279 150.189C104.676 151.316 100 155.842 100 161.552V189.131ZM68.9655 18.683C68.9655 11.6502 62.0794 6.6928 55.7724 9.80582C22.7276 26.1226 0 60.1556 0 99.4977C0 138.84 22.7276 172.873 55.7724 189.19C62.0794 192.303 68.9655 187.345 68.9655 180.313V18.6864V18.683Z" fill="#3F75FF"/>
</g>
<defs>
<clipPath id="clip0_158_707">
<rect width="200" height="198.995" fill="white"/>
</clipPath>
</defs>
</svg>
