<svg xmlns="http://www.w3.org/2000/svg" width="650" height="650" fill="none" xmlns:v="https://vecta.io/nano"><g stroke="#000"><path d="M378.207 166.799V251a3 3 0 0 1-3 3H275.065a3 3 0 0 1-3-3v-84.201a3 3 0 0 0-3-3h-59.549c-2.71 0-4.031-3.309-2.066-5.176L322.936 48.962a3 3 0 0 1 4.131 0L442.55 158.623c1.965 1.867.644 5.176-2.066 5.176h-59.277a3 3 0 0 0-3 3z" fill="#b9d3ff"/><g fill="#8ab5ff"><path d="M420.903 187.906c-69.838 20.508-193.201 51.267-249.804 65.18-3.525.866-2.701 6.212.924 6.071l265.251-10.307a3.01 3.01 0 0 0 2.777-3.815l-15.472-55.048c-.452-1.608-2.072-2.552-3.676-2.081z"/><path d="M455.282 198.585l-247.267 47.466c-3.605.674-3.109 7.167.558 7.274l257.705 7.566a3 3 0 0 0 3.037-3.551l-10.553-56.353c-.308-1.643-1.841-2.73-3.48-2.402z"/></g><path d="M122 527V247a5 5 0 0 1 5-5h372c11.046 0 20 8.954 20 20v250c0 11.046-8.954 20-20 20H127a5 5 0 0 1-5-5z" fill="#005eff"/><rect x="140.5" y="277.5" width="361" height="221" rx="4.5" fill="#fff"/></g><path stroke="#005eff" stroke-width="2" stroke-linecap="round" stroke-dasharray="7 7" d="M494 482V292"/><g stroke="#000"><path d="M417.214 349H525a3 3 0 0 1 3 3v72a3 3 0 0 1-3 3H417.214a3 3 0 0 1-2.236-1l-32.19-36a3 3 0 0 1 0-4l32.19-36a3 3 0 0 1 2.236-1z" fill="#8ab5ff"/><circle cx="423" cy="388" r="12.5" fill="#fff"/><circle cx="423" cy="388" r="9.5" fill="#005eff"/><path d="M316.999 386a68 68 0 0 1-11.46 37.779c-7.472 11.182-18.092 19.898-30.517 25.045s-26.098 6.493-39.288 3.869a67.99 67.99 0 0 1-53.427-53.427c-2.624-13.19-1.278-26.863 3.869-39.288s13.863-23.045 25.045-30.517A68 68 0 0 1 249 318.001a67.66 67.66 0 0 1 26.074 5.086c8.27 3.402 15.784 8.409 22.107 14.732s11.33 13.837 14.732 22.107A67.66 67.66 0 0 1 316.999 386z" fill="#b9d3ff" stroke-linejoin="round"/><g fill="#005eff"><path d="M298.429 432.335a66.42 66.42 0 0 1-22.231 16.312 66.14 66.14 0 0 1-54.396 0 66.42 66.42 0 0 1-22.231-16.312c3.661-10.157 10.334-18.944 19.122-25.174 8.868-6.286 19.455-9.661 30.307-9.661s21.439 3.375 30.307 9.661c8.788 6.23 15.461 15.017 19.122 25.174z"/><path d="M276.5 377c0 15.188-12.312 27.5-27.5 27.5s-27.5-12.312-27.5-27.5 12.312-27.5 27.5-27.5 27.5 12.312 27.5 27.5z"/></g></g><g stroke="#005eff" stroke-width="2" stroke-linecap="round" stroke-dasharray="7 7"><path d="M494 482H155.003m-.003 0V292"/><path d="M494 292H155"/></g></svg>