<svg width="200" height="200" viewBox="0 0 200 200" fill="none" xmlns="http://www.w3.org/2000/svg">
<path d="M89.9648 99.9733L164.661 142.796C167.241 144.287 170.566 142.395 170.566 139.414V60.5324C170.566 57.5514 167.299 55.6598 164.661 57.1503L89.9648 99.9733Z" fill="#31CB9E"/>
<path d="M160.307 38.689L110.719 0.796143C108.426 -0.923654 105.101 0.280205 104.471 3.08921L86.3555 87.4739L159.906 45.2243C162.371 43.7912 162.6 40.4088 160.307 38.689Z" fill="#31CB9E"/>
<path d="M110.719 199.203L160.422 161.253C162.657 159.534 162.428 156.151 160.02 154.718L86.3555 112.525L104.528 196.91C105.044 199.719 108.369 200.923 110.719 199.203Z" fill="#31CB9E"/>
<path d="M70.8166 99.9715L90.3649 9.05148C91.1101 5.49722 87.0399 2.86019 84.1163 5.15323L34.0702 43.3901C31.4905 45.3391 30 48.4349 30 51.6451V148.47C30 151.68 31.4905 154.776 34.0702 156.725L84.1163 194.904C86.9824 197.083 91.1101 194.503 90.3649 191.006L70.8166 99.9715Z" fill="#31CB9E"/>
</svg>
