<svg width="200" height="200" viewBox="0 0 200 200" fill="none" xmlns="http://www.w3.org/2000/svg">
<path d="M100 200C155.228 200 200 155.228 200 100C200 44.7715 155.228 0 100 0C44.7715 0 0 44.7715 0 100C0 155.228 44.7715 200 100 200Z" fill="#FF007A"/>
<path d="M76.6328 36.0431C74.8516 35.7681 74.7766 35.7306 75.6141 35.6056C77.2203 35.3556 81.0203 35.6994 83.6391 36.3181C89.7453 37.7744 95.3016 41.4931 101.239 48.0994L102.814 49.8494L105.064 49.4931C114.564 47.9619 124.233 49.1806 132.314 52.9119C134.539 53.9369 138.045 55.9806 138.483 56.5119C138.627 56.6744 138.883 57.7556 139.052 58.9056C139.652 62.8869 139.352 65.9369 138.139 68.2181C137.477 69.4556 137.439 69.8431 137.883 70.9056C138.093 71.3445 138.423 71.7154 138.834 71.9762C139.245 72.2369 139.721 72.3771 140.208 72.3806C142.22 72.3806 144.383 69.1306 145.383 64.6119L145.783 62.8181L146.57 63.7119C150.895 68.6119 154.289 75.2931 154.87 80.0431L155.027 81.2869L154.295 80.1619C153.045 78.2244 151.795 76.8994 150.183 75.8306C147.283 73.9119 144.214 73.2619 136.089 72.8306C128.752 72.4431 124.595 71.8181 120.483 70.4744C113.477 68.1931 109.945 65.1494 101.62 54.2306C97.9266 49.3806 95.6391 46.6994 93.3703 44.5431C88.2016 39.6306 83.1266 37.0556 76.6328 36.0431V36.0431Z" fill="white"/>
<path d="M140.14 46.8738C140.327 43.6238 140.765 41.4801 141.652 39.5238C142.002 38.7488 142.334 38.1113 142.384 38.1113C142.328 38.5501 142.212 38.9791 142.04 39.3863C141.396 41.2863 141.29 43.8863 141.734 46.9051C142.296 50.7426 142.621 51.2926 146.671 55.4363C148.577 57.3801 150.79 59.8301 151.59 60.8863L153.046 62.7988L151.59 61.4301C149.809 59.7613 145.709 56.4926 144.802 56.0301C144.196 55.7176 144.102 55.7238 143.727 56.0926C143.384 56.4426 143.309 56.9551 143.265 59.3988C143.19 63.1988 142.671 65.6488 141.415 68.0863C140.74 69.3988 140.634 69.1238 141.246 67.6301C141.702 66.5176 141.746 66.0301 141.746 62.3488C141.746 54.9488 140.865 53.1738 135.709 50.1238C134.157 49.2235 132.564 48.3976 130.934 47.6488C130.128 47.3258 129.347 46.9457 128.596 46.5113C128.74 46.3676 133.765 47.8301 135.784 48.6113C138.796 49.7676 139.29 49.9176 139.659 49.7738C139.902 49.6801 140.021 48.9676 140.14 46.8738V46.8738ZM80.0961 59.5301C76.4773 54.5488 74.2398 46.9051 74.7211 41.1926L74.8711 39.4238L75.6961 39.5738C77.2461 39.8551 79.9149 40.8488 81.1649 41.6113C84.5899 43.6926 86.0773 46.4363 87.5836 53.4738C88.0273 55.5363 88.6086 57.8676 88.8774 58.6613C89.3024 59.9301 90.9274 62.8988 92.2524 64.8301C93.2024 66.2176 92.5649 66.8738 90.4648 66.6863C87.2523 66.3926 82.9023 63.3926 80.0961 59.5301ZM135.752 96.6238C118.834 89.8113 112.877 83.8988 112.877 73.9238C112.877 72.4551 112.927 71.2551 112.984 71.2551C113.046 71.2551 113.702 71.7363 114.44 72.3301C117.871 75.0801 121.715 76.2551 132.346 77.8051C138.602 78.7238 142.127 79.4613 145.377 80.5363C155.702 83.9613 162.09 90.9113 163.615 100.374C164.052 103.124 163.796 108.28 163.077 110.999C162.515 113.149 160.784 117.018 160.327 117.168C160.202 117.205 160.077 116.724 160.04 116.055C159.865 112.505 158.071 109.043 155.052 106.449C151.621 103.505 147.015 101.155 135.746 96.6238H135.752ZM123.877 99.4488C123.677 98.2416 123.404 97.0477 123.059 95.8738L122.621 94.5863L123.427 95.4863C124.534 96.7363 125.415 98.3238 126.152 100.449C126.721 102.068 126.784 102.549 126.777 105.18C126.777 107.768 126.709 108.305 126.184 109.768C125.454 111.912 124.231 113.856 122.615 115.443C119.521 118.593 115.552 120.33 109.815 121.055C108.815 121.18 105.915 121.393 103.359 121.524C96.9211 121.861 92.6898 122.549 88.8836 123.886C88.5404 124.04 88.1717 124.129 87.7961 124.149C87.6461 123.993 90.2336 122.449 92.3773 121.418C95.3961 119.961 98.3961 119.168 105.127 118.049C108.452 117.493 111.89 116.824 112.759 116.555C120.996 114.03 125.227 107.518 123.871 99.4488H123.877Z" fill="white"/>
<path d="M131.627 113.225C129.377 108.394 128.865 103.725 130.096 99.375C130.227 98.9125 130.44 98.5312 130.565 98.5312C130.988 98.6844 131.386 98.8992 131.746 99.1687C132.784 99.8687 134.859 101.044 140.39 104.056C147.296 107.825 151.234 110.744 153.915 114.069C156.259 116.987 157.709 120.313 158.409 124.363C158.802 126.656 158.571 132.175 157.984 134.487C156.127 141.775 151.809 147.5 145.659 150.838C145.078 151.173 144.477 151.472 143.859 151.731C143.771 151.731 144.096 150.9 144.59 149.875C146.652 145.55 146.896 141.337 145.327 136.65C144.371 133.781 142.415 130.275 138.471 124.363C133.884 117.488 132.759 115.65 131.627 113.225V113.225ZM68.0836 139.294C74.3648 133.994 82.1711 130.231 89.2898 129.075C92.3523 128.575 97.4648 128.775 100.302 129.5C104.852 130.662 108.927 133.275 111.046 136.381C113.109 139.419 114.002 142.069 114.921 147.956C115.296 150.281 115.69 152.612 115.809 153.144C116.496 156.194 117.852 158.637 119.527 159.862C122.184 161.806 126.765 161.925 131.265 160.175C131.735 159.959 132.231 159.804 132.74 159.713C132.902 159.875 130.64 161.394 129.04 162.194C127.152 163.204 125.037 163.716 122.896 163.681C118.771 163.681 115.346 161.588 112.49 157.306C111.927 156.463 110.665 153.944 109.677 151.7C106.665 144.825 105.177 142.725 101.677 140.431C98.6211 138.431 94.6898 138.075 91.7336 139.525C87.8461 141.431 86.7648 146.4 89.5461 149.544C90.6523 150.794 92.7148 151.875 94.4023 152.081C95.1385 152.179 95.887 152.117 96.5973 151.901C97.3075 151.684 97.963 151.317 98.5194 150.825C99.0758 150.334 99.5201 149.728 99.8223 149.05C100.124 148.372 100.278 147.636 100.271 146.894C100.271 144.819 99.4711 143.644 97.4711 142.737C94.7398 141.506 91.8023 142.944 91.8148 145.512C91.8211 146.606 92.2961 147.294 93.3961 147.794C94.1023 148.106 94.1148 148.138 93.5398 148.019C91.0336 147.494 90.4461 144.475 92.4648 142.469C94.8836 140.056 99.8898 141.119 101.609 144.406C102.334 145.787 102.415 148.544 101.784 150.206C100.377 153.925 96.2648 155.875 92.0961 154.813C89.2586 154.088 88.1023 153.306 84.6836 149.781C78.7398 143.656 76.4336 142.469 67.8586 141.131L66.2148 140.875L68.0898 139.294H68.0836Z" fill="white"/>
<path fill-rule="evenodd" clip-rule="evenodd" d="M38.7266 20.9371L39.3266 21.6684C62.5016 50.0434 74.4766 64.7684 75.2391 65.8184C76.4891 67.5559 76.0203 69.1121 73.8703 70.3371C72.6766 71.0184 70.2141 71.7059 68.9891 71.7059C67.5953 71.7059 66.0266 71.0371 64.8828 69.9559C64.0766 69.1871 60.8203 64.3246 53.3016 52.6559C49.7806 47.1408 46.2139 41.6552 42.6016 36.1996C42.2953 35.9121 42.3016 35.9184 52.7141 54.5496C59.2516 66.2496 61.4641 70.3809 61.4641 70.9371C61.4641 72.0621 61.1516 72.6496 59.7641 74.1996C57.4516 76.7809 56.4203 79.6809 55.6703 85.6809C54.8328 92.4121 52.4828 97.1621 45.9578 105.293C42.1453 110.056 41.5203 110.931 40.5516 112.85C39.3391 115.262 39.0078 116.618 38.8703 119.668C38.7266 122.893 39.0078 124.981 39.9953 128.062C40.8578 130.762 41.7578 132.55 44.0578 136.112C46.0453 139.193 47.1891 141.481 47.1891 142.375C47.1891 143.087 47.3266 143.087 50.4078 142.393C57.7766 140.731 63.7578 137.8 67.1266 134.212C69.2078 131.993 69.6953 130.768 69.7141 127.725C69.7203 125.737 69.6516 125.318 69.1141 124.175C68.2391 122.312 66.6453 120.762 63.1328 118.362C58.5266 115.212 56.5641 112.675 56.0203 109.193C55.5703 106.337 56.0891 104.318 58.6391 98.9809C61.2703 93.4559 61.9266 91.1059 62.3703 85.5371C62.6516 81.9371 63.0453 80.5184 64.0828 79.3809C65.1578 78.1934 66.1328 77.7871 68.8016 77.4246C73.1516 76.8309 75.9203 75.7059 78.1953 73.6121C80.1703 71.7871 80.9953 70.0309 81.1203 67.3934L81.2203 65.3934L80.1141 64.1059C78.5266 62.2559 65.3953 47.7684 40.7141 20.6309L40.0516 19.9121L38.7266 20.9434V20.9371ZM49.4391 123.325C49.8751 122.553 50.0053 121.645 49.8039 120.781C49.6025 119.918 49.0842 119.162 48.3516 118.662C46.9266 117.712 44.7078 118.162 44.7078 119.4C44.7078 119.775 44.9141 120.05 45.3828 120.293C46.1766 120.7 46.2328 121.162 45.6141 122.093C44.9828 123.043 45.0328 123.881 45.7578 124.45C46.9203 125.362 48.5703 124.856 49.4453 123.325H49.4391ZM83.9641 78.4746C81.9203 79.0996 79.9391 81.2684 79.3203 83.5371C78.9453 84.9184 79.1578 87.3496 79.7203 88.0996C80.6266 89.3121 81.5078 89.6309 83.8828 89.6121C88.5328 89.5809 92.5703 87.5871 93.0453 85.0934C93.4328 83.0496 91.6516 80.2184 89.2078 78.9684C87.9453 78.3309 85.2641 78.0746 83.9641 78.4746V78.4746ZM89.4016 82.7246C90.1203 81.7059 89.8016 80.5996 88.5891 79.8621C86.2641 78.4434 82.7516 79.6121 82.7516 81.8121C82.7516 82.8996 84.5828 84.0934 86.2578 84.0934C87.3828 84.0934 88.9078 83.4246 89.4016 82.7246Z" fill="white"/>
</svg>
