<?xml version="1.0" encoding="UTF-8"?>
<svg width="600px" height="600px" viewBox="0 0 600 600" version="1.1" xmlns="http://www.w3.org/2000/svg" xmlns:xlink="http://www.w3.org/1999/xlink">
    <title>编组</title>
    <defs>
        <linearGradient x1="0%" y1="-17.6897755%" x2="100%" y2="100%" id="linearGradient-1">
            <stop stop-color="#F08E8E" offset="0%"></stop>
            <stop stop-color="#FF4596" offset="100%"></stop>
        </linearGradient>
        <path d="M43.159613,0 C66.9960091,0 86.319226,19.3214322 86.319226,43.1556268 C86.319226,54.4096822 82.0110189,64.657595 74.9537331,72.3403805 C72.1839239,71.3858714 69.3794028,70.5016962 66.5420287,69.6876987 C56.0882487,66.6886755 45.1885082,64.6423461 33.9362614,63.6579021 C24.1797671,62.8043194 14.5455983,62.7832331 5.10614223,63.5347703 C1.84805244,57.4657423 0,50.5264825 0,43.1556268 C0,19.3214322 19.3232169,0 43.159613,0 Z" id="path-2"></path>
    </defs>
    <g id="品牌资源" stroke="none" stroke-width="1" fill="none" fill-rule="evenodd">
        <g id="画板" transform="translate(-690.000000, -2084.000000)">
            <g id="编组" transform="translate(690.000000, 2084.000000)">
                <circle id="椭圆形备份" fill="url(#linearGradient-1)" fill-rule="nonzero" cx="300" cy="300" r="300"></circle>
                <g id="编组-4备份-2" transform="translate(50.000000, 139.000000)">
                    <g id="编组-3">
                        <path d="M276.568213,69.3956488 C287.938201,81.4489524 294.611731,91.3761844 296.588805,99.1773448 C273.296818,54.6219498 219.697938,37.3067389 135.792165,47.2317121 C102.25938,52.8516495 76.9055472,65.7764055 59.7306669,86.00598 C58.5195596,87.4324928 55.2205546,87.2491304 51.7214009,86.8822095 L50.9412838,86.7982297 C47.2925237,86.3976342 43.5788974,85.9132556 41.9057683,86.9358326 C40.1176115,88.0287117 41.4355519,92.8504571 42.764739,98.0658836 L42.9543652,98.8132625 L42.9543652,98.8132625 L43.1421393,99.5638369 L43.1421393,99.5638369 L43.3260563,100.315446 L43.3260563,100.315446 L43.504111,101.065929 C44.3763873,104.811926 44.9536387,108.434661 44.1080044,110.718689 C40.8524067,119.511941 37.0944879,137.807663 32.834248,165.605855 C32.7573237,169.928116 30.3516385,172.474422 25.6110274,173.247086 C19.0371883,174.318545 13.4176957,170.802626 11.272408,174.567102 C9.28495792,181.319952 9.28495792,186.984313 9.47001229,193.748455 C9.74865706,203.933531 12.9415248,211.518561 19.2397528,215.942551 C23.2505038,218.759776 31.1422741,218.759776 42.9150638,215.942551 C36.2317668,221.250488 30.5176872,223.998137 25.772825,224.185497 C32.0200699,235.102854 40.3761361,242.161255 50.8414191,245.360517 C41.6936607,244.330082 35.8944489,241.709917 26.7110226,235.18447 C22.3528093,232.087665 18.2902965,227.495099 18.3992678,225.217773 C18.460584,224.71844 18.5485688,224.264033 18.6632222,223.854554 C18.1397334,223.774958 17.6264381,223.675887 17.1231795,223.553675 C3.69528401,220.292813 1.92914464,218.177947 1.47223152,214.103037 C0.925836318,209.230094 0.531530501,203.715036 0.28931407,198.131418 L0.237991726,196.889719 L0.237991726,196.889719 L0.191676439,195.647161 C0.16977056,195.025901 0.149742328,194.404843 0.131591743,193.784774 L0.0977941016,192.54619 C-0.220362709,179.972064 0.237783098,168.023847 1.47223152,163.315676 C3.12621731,159.755574 11.6252922,163.386981 18.2906504,163.95321 C23.4418449,136.792213 27.8328534,117.292448 31.4631528,105.452173 C31.4631528,103.53367 30.0604439,97.2148194 28.8697971,90.4812478 L28.7051991,89.5393891 C27.2934271,81.3602389 26.3016128,72.8456939 28.5854761,71.0443256 C31.7116401,68.7879617 53.540323,67.4525434 59.7306669,67.4525434 C74.4425793,55.8454787 85.2740984,49.3219082 104.161897,43.7531761 C163.916433,24.8678059 237.928123,33.6635461 276.568213,69.3956488 Z M57.3119508,127.008456 C61.9099729,127.088715 64.3016461,132.864705 64.1527553,141.39465 C64.0038646,149.924596 62.5423243,155.088889 60.0608585,157.512753 C57.5793927,159.936618 51.0614519,159.331983 50.3334256,148.906738 C49.6053993,138.481492 52.7139287,126.928197 57.3119508,127.008456 Z M196.2413,62.6148022 C224.402591,64.9675689 245.183815,75.0366744 258.584971,92.8221185 C248.863936,87.8299545 238.567409,83.7291752 227.797554,80.6394752 C217.343774,77.640452 206.444042,75.5940324 195.191787,74.6096786 C183.939532,73.6253248 172.850001,73.7481108 162.034215,74.8864599 C150.891408,76.0592276 140.03915,78.3098987 129.598838,81.5383364 C145.865854,66.5698802 168.080008,60.2620354 196.2413,62.6148022 Z" id="形状结合" fill="#FFFFFF"></path>
                        <path d="M202.333892,0 C231.069906,0 254.365047,23.29299 254.365047,52.0263493 C254.365047,64.7621404 249.788432,76.4291045 242.189952,85.4726348 C237.496292,83.6591296 232.695879,82.0447268 227.797554,80.6394752 C217.343774,77.640452 206.444034,75.5941226 195.191787,74.6096786 C183.93954,73.6252346 172.850001,73.7481108 162.034215,74.8864599 C159.998846,75.1006801 157.973173,75.350865 155.957933,75.6364043 C152.34177,68.5519881 150.302737,60.5272675 150.302737,52.0263493 C150.302737,23.29299 173.597879,0 202.333892,0 Z" id="形状结合备份-5" fill="#FFFFFF"></path>
                        <g id="椭圆形" transform="translate(161.255525, 6.789669)">
                            <mask id="mask-3" fill="white">
                                <use xlink:href="#path-2"></use>
                            </mask>
                            <use id="蒙版" fill="#FD5295" xlink:href="#path-2"></use>
                            <ellipse fill="#FFBBA0" mask="url(#mask-3)" cx="55.6470902" cy="47.3177347" rx="43.159613" ry="43.1556268"></ellipse>
                        </g>
                    </g>
                    <g id="编组-2备份-4" transform="translate(90.962777, 150.122261)" fill="#FFFFFF" fill-rule="nonzero">
                        <path d="M111.153155,23.3042236 C124.361225,23.3042236 135.163525,33.6036004 135.965529,46.6085299 L136.013289,46.6084472 L136.013289,52.8229068 L92.5718739,52.822925 C93.3614263,62.3924548 101.378989,69.9126708 111.153155,69.9126708 C118.609544,69.9126708 125.04365,65.5361591 128.02637,59.2120133 L133.397599,62.3805002 C129.317627,70.5311578 120.888956,76.1271304 111.153155,76.1271304 C97.5605801,76.1271304 86.5158852,65.2193688 86.2963505,51.6803617 L86.29302,51.2692919 L86.29302,48.1620621 C86.29302,34.433457 97.4232814,23.3042236 111.153155,23.3042236 Z M6.429,7.76807453 L22.5889251,68.6682252 L38.747,7.76807453 L46.827,7.76807453 L62.9866438,68.6682252 L79.145,7.76807453 L85.576,7.76807453 L67.438,76.1270745 L58.534,76.1270745 L42.7877844,16.779041 L27.04,76.1270745 L18.137,76.1270745 L0,7.76807453 L6.429,7.76807453 Z M111.153155,29.5186832 C101.378989,29.5186832 93.3614263,37.0388992 92.5718739,46.608429 L129.734433,46.608398 C128.953907,37.1484679 121.109987,29.6911864 111.48824,29.5216335 L111.153155,29.5186832 Z" id="形状结合"></path>
                        <path d="M369.287467,23.3042236 L382.489467,59.5692721 L395.797467,23.3042236 L409.037467,23.3042236 L386.223297,85.4827605 C383.573157,90.8062477 380.541809,94.331018 377.129253,96.0570713 C373.981894,97.2623138 370.778982,97.8777391 367.543307,97.8777391 C363.018287,97.8777391 358.55734,96.6741265 354.222807,94.3369408 L353.539467,93.9585014 L359.68268,83.1535979 C362.422358,84.710976 365.01833,85.4488198 367.543307,85.4488198 C371.156117,85.8193964 373.481031,84.4347457 374.51805,81.2948676 L375.848467,77.6672721 L356.060467,23.3042236 L369.287467,23.3042236 Z M286.727855,23.3042236 L286.727855,72.2431786 C286.727855,86.4007645 275.249727,97.8777391 261.090841,97.8777391 C253.637287,97.8777391 246.277147,95.6049505 239.088209,91.1668707 L238.464804,90.8773688 C241.265185,86.0627809 243.366198,82.4660006 244.767843,80.0870278 C244.798048,80.035761 244.8818,80.0782711 245.019098,80.2145582 C250.534167,83.7438763 255.862608,85.4488198 261.090841,85.4488198 C261.512391,85.4488198 261.929328,85.4290714 262.340777,85.3904492 C268.919085,84.7729528 274.094621,79.330952 274.291949,72.6395661 L274.297788,72.2431472 L274.298062,70.1619585 C271.062125,71.9846052 267.365653,73.0199006 263.421479,73.0199006 C250.423172,73.0199006 240.115103,61.7757723 240.115103,48.1620621 C240.115103,34.5483519 250.423172,23.3042236 263.421479,23.3042236 C267.365653,23.3042236 271.062125,24.339519 274.298062,26.1621657 L274.297788,23.3042236 L286.727855,23.3042236 Z M347.420974,23.3042236 L347.420974,72.2431786 C347.420974,86.4007645 335.942846,97.8777391 321.78396,97.8777391 C314.330406,97.8777391 306.970266,95.6049505 299.781328,91.1668707 L299.157922,90.8773688 C301.958304,86.0627809 304.059317,82.4660006 305.460962,80.0870278 C305.491167,80.035761 305.574919,80.0782711 305.712217,80.2145582 C311.227286,83.7438763 316.555727,85.4488198 321.78396,85.4488198 C322.20551,85.4488198 322.622447,85.4290714 323.033896,85.3904492 C329.612204,84.7729528 334.78774,79.330952 334.985068,72.6395661 L334.990907,72.2431472 L334.991181,70.1619585 C331.755244,71.9846052 328.058772,73.0199006 324.114598,73.0199006 C311.116291,73.0199006 300.808222,61.7757723 300.808222,48.1620621 C300.808222,34.5483519 311.116291,23.3042236 324.114598,23.3042236 C328.058772,23.3042236 331.755244,24.339519 334.991181,26.1621657 L334.990907,23.3042236 L347.420974,23.3042236 Z M229.238794,23.3042236 L229.238794,76.1271304 L216.808727,76.1271304 L216.808727,23.3042236 L229.238794,23.3042236 Z M181.072283,7.76807453 C193.944039,7.76807453 204.378659,18.2017308 204.378659,31.0722981 C204.378659,43.7799468 194.206535,54.111988 181.559896,54.3715226 L181.072283,54.3765217 L160.873424,54.3765217 L160.873424,76.1271304 L148.443356,76.1271304 L148.443356,7.76807453 L181.072283,7.76807453 Z M263.421479,35.7331428 C257.54121,35.7331428 252.54517,41.1828647 252.54517,48.1620621 C252.54517,55.1412595 257.54121,60.5909813 263.421479,60.5909813 C269.301748,60.5909813 274.297788,55.1412595 274.297788,48.1620621 C274.297788,41.1828647 269.301748,35.7331428 263.421479,35.7331428 Z M324.114598,35.7331428 C318.234329,35.7331428 313.238289,41.1828647 313.238289,48.1620621 C313.238289,55.1412595 318.234329,60.5909813 324.114598,60.5909813 C329.994867,60.5909813 334.990907,55.1412595 334.990907,48.1620621 C334.990907,41.1828647 329.994867,35.7331428 324.114598,35.7331428 Z M181.072283,20.1969938 L171.748728,20.1969938 C165.742463,20.1969938 160.873424,25.0660334 160.873424,31.0722981 C160.873424,37.0785629 165.742463,41.9476025 171.748728,41.9476025 L181.072283,41.9476025 C187.079103,41.9476025 191.948592,37.0785629 191.948592,31.0722981 C191.948592,25.1911639 187.279885,20.400364 181.446195,20.2032999 L181.072283,20.1969938 Z M223.02376,0 C227.314346,0 230.792552,3.47788543 230.792552,7.76807453 C230.792552,12.0582636 227.314346,15.5361491 223.02376,15.5361491 C218.733175,15.5361491 215.254968,12.0582636 215.254968,7.76807453 C215.254968,3.47788543 218.733175,0 223.02376,0 Z" id="形状结合"></path>
                    </g>
                </g>
            </g>
        </g>
    </g>
</svg>