<svg width="200" height="200" viewBox="0 0 200 200" fill="none" xmlns="http://www.w3.org/2000/svg">
<path d="M100 200C155.228 200 200 155.228 200 100C200 44.7715 155.228 0 100 0C44.7715 0 0 44.7715 0 100C0 155.228 44.7715 200 100 200Z" fill="url(#paint0_linear_158_698)"/>
<g filter="url(#filter0_d_158_698)">
<path d="M133.963 155.712C132.838 155.711 131.758 155.264 130.962 154.468C130.166 153.672 129.718 152.593 129.717 151.467V139.107C129.717 138.55 129.607 137.998 129.394 137.484C129.181 136.969 128.869 136.502 128.475 136.108C128.081 135.714 127.614 135.402 127.099 135.189C126.585 134.976 126.033 134.866 125.476 134.866C124.919 134.866 124.368 134.976 123.854 135.189C123.339 135.402 122.872 135.714 122.478 136.108C122.084 136.502 121.772 136.969 121.559 137.484C121.345 137.998 121.236 138.55 121.236 139.107V144.973C121.236 146.097 120.789 147.176 119.994 147.971C119.198 148.767 118.12 149.213 116.995 149.213C115.871 149.213 114.792 148.767 113.997 147.971C113.201 147.176 112.755 146.097 112.755 144.973V139.107C112.759 138.547 112.652 137.992 112.441 137.473C112.23 136.955 111.918 136.483 111.524 136.086C111.13 135.689 110.661 135.373 110.144 135.158C109.627 134.943 109.073 134.832 108.513 134.832C107.953 134.832 107.399 134.943 106.882 135.158C106.365 135.373 105.896 135.689 105.502 136.086C105.108 136.483 104.796 136.955 104.585 137.473C104.373 137.992 104.267 138.547 104.271 139.107V140.703C104.263 141.823 103.812 142.895 103.016 143.683C102.221 144.472 101.147 144.915 100.026 144.915C98.9062 144.915 97.8315 144.472 97.0363 143.683C96.2412 142.895 95.7901 141.823 95.7814 140.703V139.107C95.7858 138.547 95.6793 137.992 95.4681 137.473C95.2568 136.955 94.9451 136.483 94.5508 136.086C94.1565 135.689 93.6874 135.373 93.1706 135.158C92.6539 134.943 92.0996 134.832 91.5398 134.832C90.9799 134.832 90.4257 134.943 89.9089 135.158C89.3921 135.373 88.923 135.689 88.5287 136.086C88.1344 136.483 87.8227 136.955 87.6115 137.473C87.4003 137.992 87.2938 138.547 87.2981 139.107V144.973C87.2981 146.097 86.8514 147.176 86.0561 147.971C85.2608 148.767 84.1822 149.213 83.0575 149.213C81.9329 149.213 80.8543 148.767 80.059 147.971C79.2637 147.176 78.8169 146.097 78.8169 144.973V139.107C78.8169 137.982 78.3702 136.903 77.5749 136.108C76.7796 135.313 75.701 134.866 74.5763 134.866C73.4517 134.866 72.3731 135.313 71.5778 136.108C70.7825 136.903 70.3358 137.982 70.3358 139.107V151.467C70.3456 152.03 70.2432 152.59 70.0345 153.113C69.8258 153.636 69.5151 154.112 69.1204 154.513C68.7257 154.915 68.255 155.234 67.7357 155.452C67.2165 155.67 66.659 155.782 66.0959 155.782C65.5328 155.782 64.9754 155.67 64.4561 155.452C63.9368 155.234 63.4661 154.915 63.0715 154.513C62.6768 154.112 62.366 153.636 62.1574 153.113C61.9487 152.59 61.8463 152.03 61.8561 151.467V81.4354C62.0618 72.7446 65.2216 64.3832 70.8149 57.7284C76.4081 51.0736 84.1013 46.5224 92.6271 44.8246C101.153 43.1268 110.003 44.3836 117.719 48.388C125.435 52.3924 131.556 58.9055 135.076 66.8544C137.112 71.4522 138.217 76.408 138.325 81.4354C138.332 81.4876 138.324 81.5407 138.302 81.5885C138.28 81.6364 138.245 81.6768 138.2 81.7052V151.467C138.2 152.592 137.753 153.67 136.959 154.466C136.165 155.261 135.087 155.71 133.963 155.712ZM95.7358 92.5653C94.659 92.5653 94.2218 92.9823 94.2218 94.0122C94.2218 96.516 96.9909 98.5516 100.393 98.5516C103.791 98.5516 106.556 96.5155 106.556 94.0122C106.556 92.9843 106.117 92.5673 105.044 92.5673C104.469 92.5875 103.897 92.6456 103.33 92.7413L103.276 92.7503C102.323 92.9069 101.359 92.9948 100.393 93.0135C99.4251 92.9948 98.4594 92.9068 97.5038 92.7503C96.9194 92.6482 96.3287 92.5863 95.7358 92.5653V92.5653ZM114.201 71.9555C110.447 71.9555 107.395 75.4513 107.395 79.7498C107.395 84.0439 110.447 87.5374 114.201 87.5374C117.949 87.5374 120.997 84.0439 120.997 79.7498C120.996 75.4513 117.949 71.9555 114.201 71.9555ZM85.9798 71.9555C82.2342 71.9555 79.1842 75.4513 79.1842 79.7498C79.1842 84.0439 82.2342 87.5374 85.9798 87.5374C89.7255 87.5374 92.7775 84.0439 92.7775 79.7498C92.7773 75.4513 89.7273 71.9555 85.9798 71.9555Z" fill="white"/>
</g>
<defs>
<filter id="filter0_d_158_698" x="61.3555" y="43.5879" width="77.4727" height="112.693" filterUnits="userSpaceOnUse" color-interpolation-filters="sRGB">
<feFlood flood-opacity="0" result="BackgroundImageFix"/>
<feColorMatrix in="SourceAlpha" type="matrix" values="0 0 0 0 0 0 0 0 0 0 0 0 0 0 0 0 0 0 127 0" result="hardAlpha"/>
<feOffset/>
<feGaussianBlur stdDeviation="0.25"/>
<feColorMatrix type="matrix" values="0 0 0 0 0 0 0 0 0 0 0 0 0 0 0 0 0 0 0.161 0"/>
<feBlend mode="normal" in2="BackgroundImageFix" result="effect1_dropShadow_158_698"/>
<feBlend mode="normal" in="SourceGraphic" in2="effect1_dropShadow_158_698" result="shape"/>
</filter>
<linearGradient id="paint0_linear_158_698" x1="181.4" y1="45.4" x2="32.6" y2="170.6" gradientUnits="userSpaceOnUse">
<stop stop-color="#B6509E"/>
<stop offset="1" stop-color="#2EBAC6"/>
</linearGradient>
</defs>
</svg>
