<svg xmlns="http://www.w3.org/2000/svg" width="650" height="650" fill="none" xmlns:v="https://vecta.io/nano"><g fill="#8ab5ff" stroke="#000"><path d="M420.899 133.906c-69.838 20.508-193.201 51.267-249.804 65.18-3.525.866-2.701 6.212.924 6.071L437.27 194.85a3.01 3.01 0 0 0 2.777-3.815l-15.472-55.048c-.452-1.608-2.072-2.552-3.676-2.081z"/><path d="M455.282 144.586l-247.267 47.465c-3.605.674-3.109 7.167.558 7.275l257.705 7.565a3 3 0 0 0 3.037-3.551l-10.553-56.353c-.308-1.643-1.841-2.729-3.48-2.401z"/></g><path d="M122 473V193a5 5 0 0 1 5-5h372c11.046 0 20 8.955 20 20v250c0 11.046-8.954 20-20 20H127a5 5 0 0 1-5-5z" fill="#005eff" stroke="#000"/><rect x="172.5" y="251.5" width="305" height="87" rx="9.5" fill="#8ab5ff" stroke="#000"/><rect x="139.5" y="273.5" width="361" height="187" rx="4.5" fill="#fff" stroke="#000"/><path stroke="#005eff" stroke-width="2" stroke-linecap="round" stroke-dasharray="7 7" d="M487 287v162"/><path d="M417.214 295H525a3 3 0 0 1 3 3v72a3 3 0 0 1-3 3H417.214c-.854 0-1.667-.363-2.236-1l-32.19-36a3 3 0 0 1 0-3.999l32.19-36a3 3 0 0 1 2.236-1.001z" fill="#8ab5ff" stroke="#000"/><path d="M151 286v162m336 1H151" stroke="#005eff" stroke-width="2" stroke-linecap="round" stroke-dasharray="7 7"/><g stroke="#000"><circle cx="423" cy="334" r="12.5" fill="#fff"/><circle cx="423" cy="334" r="9.5" fill="#005eff"/><path d="M266.299 425.647v.5h.5 6.511c6.881 0 12.524 5.707 12.524 12.693v65.967c0 6.987-5.643 12.694-12.524 12.694h-78.138c-6.881 0-12.524-5.707-12.524-12.694V438.84c0-6.986 5.643-12.693 12.524-12.693h6.511.5v-.5-13.193c0-17.937 14.368-32.484 32.058-32.484s32.058 14.547 32.058 32.484v13.193zm-11.872.5h.5v-.5-13.193c0-11.551-9.269-20.95-20.686-20.95s-20.686 9.399-20.686 20.95v13.193.5h.5 40.372z" fill="#8ab5ff"/></g><rect x="193.5" y="437.5" width="5" height="61" rx="2.5" fill="#fff" stroke="#005eff"/></svg>