<svg width="200" height="200" viewBox="0 0 200 200" fill="none" xmlns="http://www.w3.org/2000/svg">
<path d="M100 200C155.228 200 200 155.228 200 100C200 44.7715 155.228 0 100 0C44.7715 0 0 44.7715 0 100C0 155.228 44.7715 200 100 200Z" fill="#D65892"/>
<path fill-rule="evenodd" clip-rule="evenodd" d="M86.2139 43.876C97.8514 44.8572 113.258 51.251 128.101 62.076C142.889 72.9635 153.739 85.9197 158.351 96.8635C161.726 104.807 161.839 111.838 158.464 116.676L135.301 149.845C131.926 154.682 125.345 156.813 116.97 156.126C105.333 155.088 89.8702 148.751 75.0827 137.87C60.2389 127.038 49.4452 114.082 44.7702 103.138C41.4014 95.1947 41.2889 88.1635 44.6639 83.326L67.8827 50.1572C71.2577 45.3197 77.7827 43.1885 86.2139 43.876V43.876ZM134.889 121.676C134.672 121.641 134.449 121.693 134.27 121.821C134.09 121.949 133.969 122.142 133.931 122.359C133.893 122.576 133.942 122.799 134.068 122.98C134.193 123.161 134.385 123.285 134.601 123.326C139.176 124.138 143.27 124.282 146.689 123.726C146.897 123.679 147.079 123.554 147.198 123.377C147.317 123.2 147.364 122.985 147.33 122.775C147.295 122.564 147.182 122.375 147.013 122.245C146.844 122.115 146.632 122.055 146.42 122.076C143.208 122.601 139.295 122.457 134.889 121.676V121.676ZM127.445 120.757C127.415 120.863 127.405 120.974 127.418 121.083C127.43 121.193 127.464 121.299 127.517 121.395C127.571 121.492 127.643 121.577 127.729 121.645C127.815 121.714 127.914 121.764 128.02 121.795C129.12 122.107 130.208 122.388 131.276 122.638C131.483 122.666 131.693 122.616 131.864 122.497C132.036 122.378 132.157 122.2 132.204 121.997C132.251 121.793 132.22 121.58 132.118 121.398C132.016 121.216 131.849 121.079 131.651 121.013C130.614 120.763 129.551 120.488 128.47 120.182C128.258 120.123 128.031 120.15 127.839 120.258C127.646 120.365 127.505 120.545 127.445 120.757V120.757ZM71.0889 52.5197L70.9764 52.7447C68.4452 56.6072 69.0077 62.076 71.6514 68.2947C76.0889 78.776 86.4952 91.0447 100.608 101.413C114.72 111.776 129.395 117.938 140.47 118.863C147.108 119.382 152.333 118.176 155.095 114.545L155.258 114.257C157.958 110.451 157.395 104.807 154.758 98.476C150.314 88.051 139.908 75.7885 125.739 65.4135C111.626 55.051 96.9514 48.8885 85.8764 47.9697C79.1264 47.3885 73.7889 48.6572 71.0889 52.5197V52.5197ZM66.4389 67.8197C66.2272 67.8834 66.0493 68.0282 65.9439 68.2226C65.8385 68.4169 65.8143 68.6451 65.8764 68.8572C68.7264 78.6322 75.964 87.9385 87.3452 98.4197L88.6265 99.5947C89.5075 100.394 90.395 101.185 91.2889 101.97C91.6389 102.27 92.164 102.232 92.464 101.882C92.6098 101.715 92.6831 101.496 92.6679 101.275C92.6526 101.053 92.5501 100.847 92.3827 100.701C91.6952 100.107 91.0327 99.5135 90.3702 98.9197L89.0764 97.7447C77.5577 87.226 70.2639 77.9572 67.4702 68.3885C67.44 68.2833 67.3893 68.1851 67.3211 68.0996C67.2529 68.014 67.1685 67.9428 67.0727 67.89C66.9769 67.8371 66.8716 67.8037 66.7628 67.7917C66.6541 67.7796 66.544 67.7891 66.4389 67.8197V67.8197ZM99.2577 66.051C104.77 66.5697 112.133 69.6197 119.164 74.801C126.245 79.9885 131.476 86.151 133.664 91.3885C134.964 94.326 135.301 96.9197 134.008 98.701C132.77 100.488 130.239 101.013 127.145 100.72C121.583 100.257 114.27 97.151 107.189 91.9697C100.101 86.7822 94.8765 80.676 92.6827 75.4385C91.4452 72.501 91.1077 69.9072 92.3452 68.126C93.5827 66.3385 96.1077 65.8197 99.2577 66.051V66.051ZM65.5264 61.1885C65.3054 61.1982 65.0972 61.2951 64.9473 61.4578C64.7974 61.6206 64.718 61.8361 64.7264 62.0572C64.7764 63.1947 64.8952 64.3385 65.0952 65.4947C65.1141 65.6022 65.1539 65.705 65.2125 65.7971C65.2711 65.8892 65.3473 65.9689 65.4366 66.0316C65.526 66.0942 65.6269 66.1387 65.7334 66.1624C65.84 66.1861 65.9502 66.1886 66.0577 66.1697C66.1652 66.1508 66.268 66.111 66.3601 66.0524C66.4522 65.9938 66.5319 65.9176 66.5945 65.8283C66.6572 65.7389 66.7017 65.638 66.7254 65.5315C66.7491 65.4249 66.7516 65.3147 66.7327 65.2072C66.549 64.1428 66.4342 63.0677 66.3889 61.9885C66.3849 61.8793 66.3594 61.772 66.3139 61.6726C66.2683 61.5733 66.2037 61.484 66.1236 61.4097C66.0434 61.3354 65.9495 61.2776 65.847 61.2396C65.7446 61.2017 65.6356 61.1843 65.5264 61.1885V61.1885Z" fill="white"/>
</svg>
